<svg width="198" height="52" viewBox="0 0 198 52" fill="none" xmlns="http://www.w3.org/2000/svg">
<g clip-path="url(#clip0_204_445)">
<path d="M86.5207 20.8728H74.3145V4.83789H86.5207V8.08169H78.143V10.9785H85.7928V14.1443H78.143V17.629H86.5207V20.8728Z" fill="#202C39"/>
<path d="M89.7742 20.8721V12.5572H87.94V8.9947H91.6812V10.9778H92.5328C92.9914 10.2766 93.5737 9.73837 94.2724 9.35591C94.9712 8.97346 95.8446 8.78223 96.8854 8.78223C97.8753 8.78223 98.7197 8.94513 99.4184 9.26384C100.117 9.58964 100.685 10.0571 101.114 10.6803H101.194C102.155 9.41257 103.538 8.78223 105.343 8.78223C106.959 8.78223 108.233 9.23551 109.179 10.1492C110.118 11.0628 110.591 12.281 110.591 13.8108V20.8792H106.85V14.5191C106.85 12.8547 106.049 12.026 104.448 12.026C102.847 12.026 102.046 12.8547 102.046 14.5191V20.8721H98.3048V14.5191C98.3048 12.8547 97.4896 12.026 95.8664 12.026C95.0803 12.026 94.4908 12.2314 94.0977 12.6422C93.7047 13.053 93.5082 13.6763 93.5082 14.5262V20.8792H89.7742V20.8721Z" fill="#202C39"/>
<path d="M117.054 21.0922C115.591 21.0922 114.449 20.7522 113.626 20.0723C112.804 19.3924 112.396 18.4858 112.396 17.3526C112.396 16.1769 112.826 15.2703 113.684 14.6329C114.543 13.9955 115.773 13.6697 117.375 13.6697H120.65V13.2376C120.65 12.154 119.944 11.6157 118.532 11.6157C117.287 11.6157 116.523 12.0265 116.254 12.841H112.549C112.833 11.4953 113.481 10.4754 114.485 9.79552C115.49 9.10852 116.829 8.76855 118.51 8.76855C120.366 8.76855 121.786 9.16518 122.761 9.9655C123.736 10.7658 124.224 11.9274 124.224 13.4572V17.3172H125.971V20.8797H122.23V18.9037H121.378C120.956 19.619 120.403 20.1573 119.711 20.5397C119.027 20.9009 118.139 21.0922 117.054 21.0922ZM117.622 18.3583C118.219 18.3583 118.743 18.2592 119.202 18.0608C119.653 17.8625 120.01 17.5934 120.272 17.2464C120.526 16.9064 120.657 16.5239 120.657 16.099V16.0423H117.542C116.501 16.0423 115.977 16.4177 115.977 17.1684C115.977 17.5509 116.123 17.8484 116.414 18.0467C116.705 18.2592 117.105 18.3583 117.622 18.3583Z" fill="#202C39"/>
<path d="M129.545 7.98916C128.991 7.98916 128.511 7.79793 128.118 7.41547C127.725 7.03301 127.528 6.57265 127.528 6.02729C127.528 5.48902 127.725 5.02157 128.118 4.63912C128.511 4.25666 128.984 4.06543 129.545 4.06543C130.098 4.06543 130.578 4.25666 130.971 4.63912C131.364 5.02157 131.561 5.48194 131.561 6.02729C131.561 6.56557 131.364 7.03301 130.971 7.41547C130.571 7.79793 130.098 7.98916 129.545 7.98916ZM127.674 20.8723V8.99488H131.415V20.8723H127.674Z" fill="#202C39"/>
<path d="M133.977 20.8727V4.25H137.718V20.8798H133.977V20.8727Z" fill="#202C39"/>
<path d="M81.0254 43.1822C78.7763 43.1822 76.9785 42.7006 75.6465 41.7445C74.3072 40.7884 73.5793 39.4497 73.4629 37.7358H77.3715C77.5171 38.5644 77.9101 39.1877 78.5506 39.5985C79.1912 40.0093 80.0646 40.2147 81.1782 40.2147C82.1827 40.2147 82.9324 40.0659 83.4273 39.7685C83.9222 39.471 84.1697 39.0248 84.1697 38.4299C84.1697 37.9695 84.0169 37.6083 83.7112 37.3533C83.4055 37.0983 82.9033 36.893 82.1972 36.7513L78.718 36.036C77.1459 35.7031 75.9813 35.1719 75.217 34.4353C74.4601 33.6987 74.0743 32.7284 74.0743 31.5244C74.0743 30.0087 74.6639 28.8189 75.8576 27.9619C77.044 27.1049 78.6598 26.6729 80.7124 26.6729C82.7722 26.6729 84.4318 27.1191 85.6982 28.0185C86.9574 28.918 87.6562 30.1716 87.7945 31.7794H83.8859C83.5074 30.2779 82.3719 29.52 80.4868 29.52C79.657 29.52 79.0092 29.6617 78.5361 29.945C78.063 30.2283 77.8228 30.632 77.8228 31.1632C77.8228 31.9564 78.4051 32.4664 79.5696 32.7072L83.2089 33.4367C84.8466 33.7696 86.0403 34.3078 86.79 35.0586C87.5324 35.8093 87.9109 36.8363 87.9109 38.1253C87.9109 39.7189 87.3141 40.9654 86.1277 41.8436C84.934 42.736 83.2381 43.1822 81.0254 43.1822Z" fill="#202C39"/>
<path d="M91.7031 30.0585C91.1499 30.0585 90.6695 29.8673 90.2765 29.4848C89.8834 29.1023 89.6869 28.642 89.6869 28.0966C89.6869 27.5584 89.8834 27.0909 90.2765 26.7085C90.6695 26.326 91.1426 26.1348 91.7031 26.1348C92.2563 26.1348 92.7367 26.326 93.1297 26.7085C93.5228 27.0909 93.7193 27.5513 93.7193 28.0966C93.7193 28.6349 93.5228 29.1023 93.1297 29.4848C92.7367 29.8673 92.2636 30.0585 91.7031 30.0585ZM89.8325 42.9416V31.0642H93.5737V42.9416H89.8325Z" fill="#202C39"/>
<path d="M102.162 47.9347C100.277 47.9347 98.7488 47.5664 97.5769 46.8369C96.4051 46.1074 95.7063 45.0875 95.4952 43.7772H99.4402C99.7532 44.6484 100.612 45.0804 102.024 45.0804C103.014 45.0804 103.771 44.8608 104.295 44.4288C104.819 43.9968 105.081 43.3735 105.081 42.5661V41.0788H104.979C104.601 41.702 104.099 42.1624 103.487 42.474C102.868 42.7857 102.119 42.9415 101.238 42.9415C100.095 42.9415 99.1054 42.6936 98.2611 42.1978C97.4168 41.702 96.7544 41.0008 96.2886 40.0872C95.8228 39.1736 95.5899 38.1112 95.5899 36.8788C95.5899 35.0303 96.1139 33.5571 97.1693 32.4664C98.2174 31.3686 99.6732 30.8232 101.536 30.8232C102.57 30.8232 103.451 31.0216 104.193 31.404C104.936 31.7935 105.518 32.3389 105.955 33.0401H106.806V31.064H110.547V34.6266H108.713V42.5661C108.713 44.2801 108.153 45.6045 107.025 46.5323C105.875 47.4672 104.266 47.9347 102.162 47.9347ZM102.162 39.7756C103.043 39.7756 103.727 39.5418 104.215 39.0815C104.703 38.6211 104.95 37.9766 104.95 37.1621V36.5672C104.95 35.7598 104.703 35.1294 104.208 34.6761C103.713 34.2229 103.029 33.9962 102.162 33.9962C101.253 33.9962 100.554 34.2512 100.059 34.7611C99.564 35.2711 99.3165 35.9864 99.3165 36.9071C99.3165 37.8279 99.564 38.5432 100.059 39.0319C100.554 39.5277 101.253 39.7756 102.162 39.7756Z" fill="#202C39"/>
<path d="M113.168 42.9417V34.6268H111.333V31.0643H115.075V33.0403H115.926C116.414 32.3533 117.018 31.815 117.724 31.4255C118.437 31.036 119.347 30.8447 120.461 30.8447C122.193 30.8447 123.532 31.298 124.457 32.2117C125.388 33.1253 125.847 34.3435 125.847 35.8733V42.9417H122.106V36.5887C122.106 35.7671 121.887 35.1509 121.443 34.726C120.999 34.301 120.352 34.0956 119.5 34.0956C118.649 34.0956 118.001 34.3081 117.557 34.726C117.113 35.1509 116.894 35.7671 116.894 36.5887V42.9417H113.168Z" fill="#202C39"/>
<path d="M132.31 43.1615C130.847 43.1615 129.705 42.8215 128.882 42.1416C128.06 41.4617 127.652 40.5551 127.652 39.4219C127.652 38.2462 128.082 37.3397 128.94 36.7022C129.799 36.0648 131.029 35.739 132.631 35.739H135.906V35.307C135.906 34.2233 135.2 33.6851 133.788 33.6851C132.543 33.6851 131.779 34.0959 131.51 34.9104H127.812C128.096 33.5647 128.744 32.5448 129.748 31.8649C130.753 31.1779 132.092 30.8379 133.773 30.8379C135.629 30.8379 137.049 31.2345 138.024 32.0348C138.999 32.8352 139.487 33.9967 139.487 35.5265V39.3794H141.234V42.9419H137.493V40.9659H136.641C136.219 41.6813 135.666 42.2195 134.974 42.602C134.283 42.9774 133.395 43.1615 132.31 43.1615ZM132.878 40.4276C133.475 40.4276 133.999 40.3285 134.458 40.1302C134.909 39.9319 135.266 39.6627 135.528 39.3157C135.782 38.9757 135.913 38.5933 135.913 38.1683V38.1117H132.798C131.757 38.1117 131.233 38.487 131.233 39.2378C131.233 39.6202 131.379 39.9177 131.67 40.116C131.961 40.3285 132.361 40.4276 132.878 40.4276Z" fill="#202C39"/>
<path d="M147.035 42.9416C146.089 42.9416 145.346 42.7079 144.83 42.2405C144.306 41.773 144.044 41.0577 144.044 40.0945V33.9185H142.013V31.0713H144.087V27.5088H147.748V31.0713H150.434V33.9185H147.792V40.0945H150.718V42.9416H147.035Z" fill="#202C39"/>
<path d="M157.698 43.1614C155.951 43.1614 154.619 42.7223 153.71 41.8441C152.8 40.9658 152.348 39.7689 152.348 38.2532V31.0645H156.09V37.5379C156.09 38.3453 156.293 38.9402 156.708 39.3298C157.123 39.7193 157.749 39.9105 158.593 39.9105C159.474 39.9105 160.144 39.6981 160.61 39.266C161.068 38.834 161.301 38.2178 161.301 37.4175V31.0645H165.042V39.3794H166.877V42.9419H163.135V40.9658H162.284C161.782 41.6812 161.185 42.2195 160.493 42.6019C159.794 42.9773 158.863 43.1614 157.698 43.1614Z" fill="#202C39"/>
<path d="M169.271 42.9417V34.6268H167.437V31.0643H171.178V33.4369H172.03C172.343 32.5799 172.852 31.9425 173.558 31.5246C174.264 31.1068 175.05 30.9014 175.917 30.9014H176.957V34.0673H175.756C174.752 34.0673 174.031 34.3364 173.587 34.8818C173.143 35.42 172.925 36.1283 172.925 36.9994V42.9346H169.271V42.9417Z" fill="#202C39"/>
<path d="M180.604 30.0585C180.051 30.0585 179.57 29.8673 179.177 29.4848C178.784 29.1023 178.588 28.642 178.588 28.0966C178.588 27.5584 178.784 27.0909 179.177 26.7085C179.57 26.326 180.044 26.1348 180.604 26.1348C181.157 26.1348 181.638 26.326 182.031 26.7085C182.424 27.0909 182.62 27.5513 182.62 28.0966C182.62 28.6349 182.424 29.1023 182.031 29.4848C181.638 29.8673 181.157 30.0585 180.604 30.0585ZM178.733 42.9416V31.0642H182.475V42.9416H178.733Z" fill="#202C39"/>
<path d="M189.069 43.1615C187.606 43.1615 186.463 42.8215 185.641 42.1416C184.818 41.4617 184.411 40.5551 184.411 39.4219C184.411 38.2462 184.84 37.3397 185.699 36.7022C186.558 36.0648 187.788 35.739 189.389 35.739H192.665V35.307C192.665 34.2233 191.959 33.6851 190.547 33.6851C189.302 33.6851 188.538 34.0959 188.268 34.9104H184.564C184.847 33.5647 185.495 32.5448 186.5 31.8649C187.504 31.1779 188.843 30.8379 190.525 30.8379C192.381 30.8379 193.8 31.2345 194.775 32.0348C195.751 32.8352 196.238 33.9967 196.238 35.5265V39.3794H197.985V42.9419H194.244V40.9659H193.393C192.97 41.6813 192.417 42.2195 191.726 42.602C191.042 42.9774 190.154 43.1615 189.069 43.1615ZM189.637 40.4276C190.234 40.4276 190.758 40.3285 191.216 40.1302C191.668 39.9319 192.024 39.6627 192.286 39.3157C192.541 38.9757 192.672 38.5933 192.672 38.1683V38.1117H189.557C188.516 38.1117 187.992 38.487 187.992 39.2378C187.992 39.6202 188.137 39.9177 188.429 40.116C188.72 40.3285 189.12 40.4276 189.637 40.4276Z" fill="#202C39"/>
<path d="M59.4662 7.81912V37.7995C59.4662 42.1199 55.8633 45.6186 51.4234 45.6186L38.795 47.4813L29.8205 48.7987L8.04286 52C3.59563 52 0 48.5012 0 44.1809V7.81912C0 3.49877 3.59563 0 8.03558 0H51.4234C55.8633 0 59.4662 3.49877 59.4662 7.81912Z" fill="url(#paint0_linear_204_445)"/>
<path d="M44.4286 10.9641C44.4214 11.127 44.3922 11.2687 44.3631 11.3891C44.1957 12.3452 44.0138 13.3014 43.8682 14.2646C43.1694 18.7904 42.4852 23.3161 41.7938 27.8348C41.146 32.0984 40.4909 36.3692 39.8431 40.6329C39.4937 42.9135 39.1444 45.2011 38.795 47.4817L29.8205 48.7991C24.5289 47.0426 19.2228 45.272 13.8803 43.4942C21.0861 35.0377 28.2701 26.6166 35.4468 18.1954C35.425 18.1742 35.3959 18.1458 35.374 18.1246C35.2721 18.1954 35.1702 18.2521 35.0756 18.33C26.0065 25.88 16.93 33.4229 7.86818 40.987C7.53336 41.2703 7.26405 41.3128 6.84917 41.1712C4.56369 40.4063 2.28548 39.6413 0 38.8835V30.859C13.9458 23.7765 27.8916 16.6868 41.8374 9.6043C42.0121 9.51223 42.1868 9.42015 42.3615 9.33516C42.4561 9.29975 42.609 9.26434 42.8055 9.27142C42.9584 9.2785 43.0821 9.30683 43.1622 9.33516C43.3077 9.37058 43.6571 9.46973 43.9701 9.76012C44.2685 10.0434 44.3777 10.3621 44.4214 10.5038C44.4359 10.6313 44.4432 10.7871 44.4286 10.9641Z" fill="white"/>
</g>
<defs>
<linearGradient id="paint0_linear_204_445" x1="29.2398" y1="-0.584508" x2="30.1155" y2="49.3608" gradientUnits="userSpaceOnUse">
<stop stop-color="#FF925C"/>
<stop offset="1" stop-color="#E55812"/>
</linearGradient>
<clipPath id="clip0_204_445">
<rect width="198" height="52" fill="white"/>
</clipPath>
</defs>
</svg>
