<svg width="22" height="22" viewBox="0 0 22 22" fill="none" xmlns="http://www.w3.org/2000/svg">
<circle cx="11" cy="11" r="11" fill="#F4793D"/>
<path d="M9.93141 13.0143C9.99497 12.9231 10.0226 12.8651 10.064 12.8209C11.907 10.9751 13.7501 9.13488 15.5931 7.28911C15.8334 7.04872 16.107 6.93819 16.4386 7.0349C16.9746 7.1924 17.1736 7.85279 16.8171 8.2866C16.8005 8.30594 16.784 8.32528 16.7646 8.34462C14.6757 10.4391 12.584 12.5335 10.4896 14.6252C10.263 14.8518 9.98668 14.9181 9.68549 14.8186C9.56392 14.7772 9.4451 14.6998 9.35392 14.6086C8.32051 13.5807 7.29263 12.5473 6.26198 11.5195C6.02159 11.2791 5.9387 10.9972 6.04646 10.6795C6.14869 10.37 6.37803 10.1932 6.69856 10.1517C6.97211 10.1158 7.19316 10.2235 7.38657 10.417C8.19064 11.2238 8.99748 12.0306 9.80431 12.8375C9.84023 12.8734 9.86786 12.9231 9.93141 13.0143Z" fill="white"/>
</svg>
