<svg width="57" height="49" viewBox="0 0 57 49" fill="none" xmlns="http://www.w3.org/2000/svg">
<path d="M56.1094 7.36335V35.5962C56.1094 39.6647 52.7165 42.9596 48.5353 42.9596L36.643 44.7137L28.1916 45.9543L7.68343 48.969C3.49542 48.969 0.109375 45.6741 0.109375 41.6056V7.36335C0.109375 3.29483 3.49542 0 7.67657 0H48.5353C52.7165 0 56.1094 3.29483 56.1094 7.36335Z" fill="url(#paint0_linear_202_257)"/>
<path d="M41.9483 10.3264C41.9414 10.4798 41.914 10.6132 41.8866 10.7265C41.729 11.627 41.5576 12.5274 41.4205 13.4344C40.7625 17.6964 40.1182 21.9583 39.467 26.2136C38.857 30.2288 38.2401 34.2506 37.6301 38.2658C37.3011 40.4134 36.972 42.5677 36.643 44.7154L28.1916 45.9559C23.2085 44.3018 18.2117 42.6344 13.1806 40.9603C19.9664 32.9967 26.7317 25.0664 33.49 17.1361C33.4695 17.1161 33.4421 17.0894 33.4215 17.0694C33.3255 17.1361 33.2296 17.1895 33.1405 17.2629C24.6 24.3728 16.0526 31.476 7.51892 38.5992C7.20362 38.866 6.95001 38.906 6.55931 38.7726C4.40705 38.0523 2.26164 37.332 0.109375 36.6183V29.0616C13.2423 22.3919 26.3752 15.7155 39.5082 9.04578C39.6727 8.95907 39.8372 8.87237 40.0017 8.79233C40.0908 8.75898 40.2347 8.72563 40.4198 8.7323C40.5637 8.73897 40.6802 8.76565 40.7556 8.79233C40.8927 8.82568 41.2217 8.91906 41.5165 9.19251C41.7975 9.4593 41.9003 9.75944 41.9414 9.89283C41.9552 10.0129 41.962 10.1596 41.9483 10.3264Z" fill="white"/>
<defs>
<linearGradient id="paint0_linear_202_257" x1="27.6448" y1="-0.550437" x2="28.4694" y2="46.4836" gradientUnits="userSpaceOnUse">
<stop stop-color="#FF925C"/>
<stop offset="1" stop-color="#E55812"/>
</linearGradient>
</defs>
</svg>
